<?xml version="1.0" encoding="utf-8"?><svg xmlns="http://www.w3.org/2000/svg" xmlns:xlink="http://www.w3.org/1999/xlink" width="1536" height="722" preserveAspectRatio="xMidYMid" viewBox="0 0 1536 722" style="z-index:1;margin-right:-2px;display:block;background-repeat-y:initial;background-repeat-x:initial;background-color:rgb(241, 242, 243);animation-play-state:paused" ><g transform="translate(768,361) scale(1,1) translate(-768,-361)" style="transform:matrix(1, 0, 0, 1, 0, 0);animation-play-state:paused" ><linearGradient id="lg-0.08990665677719845" x1="0" x2="1" y1="0" y2="0" style="animation-play-state:paused" ><stop stop-color="#009ef7" offset="0" style="animation-play-state:paused" ></stop>

  
<stop stop-color="#00f7f5" offset="1" style="animation-play-state:paused" ></stop></linearGradient>
<path d="M 0 0 M 0 612.887 Q 153.6 625.335 307.2 616.144 T 614.4 602.977 T 921.6 540.602 T 1228.8 571.564 T 1536 520.582 L 1536 215.489 Q 1382.4 195.094 1228.8 194.09 T 921.6 143.679 T 614.4 89.481 T 307.2 90.8307 T 0 69.7151 Z" fill="url(#lg-0.08990665677719845)" opacity="0.4" style="opacity:0.4;animation-play-state:paused" ></path>
<path d="M 0 0 M 0 644.535 Q 153.6 639.443 307.2 636.504 T 614.4 596.864 T 921.6 573.951 T 1228.8 543.979 T 1536 481.533 L 1536 215.306 Q 1382.4 212.292 1228.8 208.148 T 921.6 170.526 T 614.4 133.637 T 307.2 82.4838 T 0 84.6928 Z" fill="url(#lg-0.08990665677719845)" opacity="0.4" style="opacity:0.4;animation-play-state:paused" ></path>
<path d="M 0 0 M 0 643.472 Q 153.6 605.536 307.2 597.682 T 614.4 602.264 T 921.6 586.416 T 1228.8 545.313 T 1536 503.309 L 1536 199.337 Q 1382.4 189.683 1228.8 185.048 T 921.6 117.122 T 614.4 117.77 T 307.2 97.5535 T 0 57.384 Z" fill="url(#lg-0.08990665677719845)" opacity="0.4" style="opacity:0.4;animation-play-state:paused" ></path>
<path d="M 0 0 M 0 642.562 Q 153.6 621.816 307.2 615.083 T 614.4 574.128 T 921.6 575.391 T 1228.8 567.391 T 1536 501.148 L 1536 203.838 Q 1382.4 157.055 1228.8 150.82 T 921.6 144.718 T 614.4 153.984 T 307.2 119.874 T 0 86.0549 Z" fill="url(#lg-0.08990665677719845)" opacity="0.4" style="opacity:0.4;animation-play-state:paused" ></path></g></svg>