<?xml version="1.0" encoding="utf-8"?><svg xmlns="http://www.w3.org/2000/svg" xmlns:xlink="http://www.w3.org/1999/xlink" width="1588" height="722" preserveAspectRatio="xMidYMid" viewBox="0 0 1588 722" style="z-index:1;margin-right:-2px;display:block;background-repeat-y:initial;background-repeat-x:initial;background-color:rgb(241, 242, 243);animation-play-state:paused" ><g transform="translate(794,361) scale(1,1) translate(-794,-361)" style="transform:matrix(1, 0, 0, 1, 0, 0);animation-play-state:paused" ><linearGradient id="lg-0.262056095958934" x1="0" x2="1" y1="0" y2="0" style="animation-play-state:paused" ><stop stop-color="#009bff" offset="0" style="animation-play-state:paused" ></stop>

  
<stop stop-color="#00ecfa" offset="1" style="animation-play-state:paused" ></stop></linearGradient>
<path d="M 0 0 L 0 599.317 Q 158.8 643.624 317.6 618.048 T 635.2 488.54 T 952.8 489.922 T 1270.4 439.212 T 1588 332.398 L 1588 0 Z" fill="url(#lg-0.262056095958934)" opacity="0.4" style="opacity:0.4;animation-play-state:paused" ></path>
<path d="M 0 0 L 0 652.548 Q 158.8 664.359 317.6 631.065 T 635.2 534.643 T 952.8 461.034 T 1270.4 423.554 T 1588 347.933 L 1588 0 Z" fill="url(#lg-0.262056095958934)" opacity="0.4" style="opacity:0.4;animation-play-state:paused" ></path>
<path d="M 0 0 L 0 642.349 Q 158.8 681.681 317.6 638.272 T 635.2 562.618 T 952.8 453.07 T 1270.4 368.384 T 1588 328.91 L 1588 0 Z" fill="url(#lg-0.262056095958934)" opacity="0.4" style="opacity:0.4;animation-play-state:paused" ></path>
<path d="M 0 0 L 0 620.033 Q 158.8 670.173 317.6 633.332 T 635.2 453.125 T 952.8 475.033 T 1270.4 341.001 T 1588 328.35 L 1588 0 Z" fill="url(#lg-0.262056095958934)" opacity="0.4" style="opacity:0.4;animation-play-state:paused" ></path>
<path d="M 0 0 L 0 631.654 Q 158.8 671.249 317.6 641.425 T 635.2 490.971 T 952.8 466.377 T 1270.4 359.445 T 1588 306.949 L 1588 0 Z" fill="url(#lg-0.262056095958934)" opacity="0.4" style="opacity:0.4;animation-play-state:paused" ></path></g></svg>